<svg xmlns="http://www.w3.org/2000/svg" version="1.1" viewBox="128 321.09 946 534.86"><path d="M 609 324.299 C 603.154 331.754, 536.648 407.976, 525.282 420.248 C 521.078 424.787, 510.183 436.119, 501.069 445.431 C 473.130 473.980, 472.723 474.616, 477.017 483.034 C 478.127 485.209, 480.589 494.979, 482.489 504.744 C 488.428 535.278, 487.625 532.721, 491.700 534.066 C 493.782 534.753, 498.155 535.043, 502.141 534.758 C 505.914 534.488, 509 534.444, 509 534.660 C 509 534.876, 498.075 549.553, 484.723 567.276 C 449.824 613.599, 435.096 635.014, 433.008 642.472 C 431.793 646.811, 431.853 647.310, 433.886 649.814 C 437.743 654.565, 440.827 662.161, 447.561 683.503 C 456.166 710.775, 457.352 713, 463.283 713 C 465.810 713, 467.443 711.904, 471.642 707.392 C 474.512 704.308, 478.062 701.162, 479.530 700.400 C 480.999 699.638, 485.192 696.545, 488.850 693.527 C 496.743 687.014, 533.584 659.791, 550.347 648.086 C 579.572 627.678, 610.134 609.008, 645 590.264 C 655.725 584.498, 668.785 576.983, 674.022 573.562 C 679.259 570.142, 692.759 562.026, 704.022 555.528 C 727.978 541.704, 750.931 526.781, 756.258 521.567 C 763.503 514.474, 766.361 505.347, 767.550 485.500 C 768.367 471.866, 766.812 457.384, 763.435 447.177 C 759.393 434.963, 759.836 435.264, 742.473 432.914 C 720.920 429.996, 721 430.011, 721 428.849 C 721 428.265, 728.160 420.654, 736.912 411.934 C 747.865 401.022, 753.024 395.165, 753.469 393.142 C 753.833 391.485, 753.448 387.866, 752.589 384.851 C 750.861 378.795, 747.615 356.927, 746.005 340.500 C 744.364 323.758, 745.786 325.520, 732.772 324.108 C 715.065 322.186, 682.487 321.058, 645.500 321.086 L 611.500 321.111 609 324.299 M 634.988 330.879 C 612.381 331.598, 612.646 331.504, 603.717 342 C 600.676 345.575, 594.937 352.325, 590.964 357 C 586.992 361.675, 562.537 389.070, 536.621 417.878 C 510.704 446.686, 489.328 470.714, 489.118 471.273 C 488.511 472.891, 514.641 471.432, 530.500 468.961 C 544.563 466.771, 567.105 465.796, 568.637 467.312 C 570.108 468.768, 563.170 480.384, 553.736 492.258 C 548.656 498.652, 543.400 505.705, 542.056 507.930 C 540.712 510.156, 537.899 513.354, 535.804 515.038 C 533.708 516.721, 529.671 521.564, 526.833 525.799 C 523.994 530.035, 514.392 542.950, 505.495 554.500 C 483.262 583.363, 473.832 596.222, 463.327 612 C 453.092 627.374, 448.504 635, 449.489 635 C 451.662 635, 537.485 580.878, 587.269 548.113 C 643.458 511.132, 740.138 445.203, 741.566 442.894 C 741.869 442.402, 740.924 442, 739.465 442 C 738.006 442, 726.167 440.176, 713.156 437.946 C 696.476 435.087, 684.737 433.666, 673.348 433.125 C 660.677 432.524, 656.630 431.987, 654.564 430.634 L 651.931 428.909 655.078 423.004 C 656.809 419.757, 662.752 412.015, 668.283 405.800 C 673.815 399.585, 684.742 387.031, 692.566 377.903 C 700.390 368.774, 712.014 355.585, 718.396 348.593 C 724.778 341.601, 730 335.508, 730 335.054 C 730 332.355, 670.611 329.745, 634.988 330.879 M 720.450 357.166 C 712.228 366.139, 701.576 377.634, 696.780 382.710 C 686.325 393.775, 668.751 415.608, 666.069 420.864 L 664.145 424.635 682.823 426.396 C 693.095 427.364, 703.095 428.384, 705.045 428.663 C 708.441 429.150, 708.850 428.856, 714.797 421.667 C 718.211 417.539, 725.661 409.844, 731.353 404.566 C 737.045 399.288, 742.513 393.463, 743.504 391.622 C 745.269 388.346, 745.252 388.024, 742.693 376.387 C 741.255 369.849, 739.326 360, 738.406 354.500 C 737.487 349, 736.434 343.679, 736.067 342.675 C 735.529 341.201, 732.522 343.990, 720.450 357.166 M 740.500 454.119 C 723.266 464.975, 693.033 485.317, 662.500 506.600 C 647.100 517.334, 624.375 532.701, 612 540.749 C 599.625 548.796, 577.705 563.161, 563.289 572.669 C 548.873 582.178, 529.073 594.853, 519.289 600.835 C 509.505 606.817, 492.725 617.324, 482 624.184 C 471.275 631.043, 458.616 639.020, 453.869 641.910 L 445.238 647.164 448.585 658.332 C 453.098 673.394, 462.533 699.347, 463.622 699.695 C 464.105 699.849, 481.057 687.655, 501.293 672.597 C 559.304 629.430, 590.512 609.097, 641.858 581.011 C 674.292 563.270, 706.200 544.197, 734.161 525.836 C 749.241 515.934, 751.379 514.186, 753.479 510.042 C 760.328 496.525, 760.832 467.092, 754.486 451.250 C 753.549 448.913, 752.494 447.043, 752.141 447.095 C 751.789 447.147, 746.550 450.308, 740.500 454.119 M 550 473.693 C 548.075 473.898, 538.231 475.177, 528.125 476.535 C 518.018 477.894, 504.631 479.298, 498.375 479.655 C 487.690 480.265, 487.001 480.432, 487.014 482.402 C 487.040 486.202, 494.880 523.280, 495.866 524.266 C 496.485 524.885, 499.925 524.791, 505.479 524.003 C 510.235 523.328, 515.409 523.032, 516.976 523.345 C 519.526 523.855, 520.273 523.318, 524.124 518.207 C 526.488 515.068, 533.079 506.730, 538.770 499.678 C 548.391 487.756, 555.273 478.057, 556.639 474.497 C 557.235 472.946, 557.131 472.934, 550 473.693 M 497.075 768.028 C 477.697 772.089, 463.224 781.706, 456.774 794.807 C 453.807 800.834, 453.500 802.306, 453.500 810.500 C 453.500 818.694, 453.807 820.166, 456.774 826.193 C 462.460 837.743, 473.351 845.917, 490.035 851.156 C 496.567 853.207, 499.499 853.499, 513.500 853.495 C 525.743 853.492, 531.019 853.072, 535.968 851.710 C 544.171 849.452, 555.399 844.029, 560.250 839.983 L 564 836.854 564 822.927 L 564 809 551 809 L 538 809 538 817.428 L 538 825.856 532.250 828.129 C 527.435 830.031, 524.549 830.409, 514.500 830.450 C 499.724 830.511, 493.810 828.704, 486.844 822 C 478.865 814.321, 479.142 805.566, 487.599 798.121 C 494.509 792.039, 500.135 790.488, 515 790.565 C 525.257 790.619, 528.642 791.031, 533.867 792.865 C 537.368 794.094, 540.334 794.965, 540.457 794.800 C 540.580 794.635, 542.971 790.108, 545.770 784.739 L 550.860 774.979 548.051 773.527 C 540.639 769.693, 530.583 767.784, 516 767.442 C 508.025 767.254, 499.509 767.518, 497.075 768.028 M 710.750 767.695 L 704 768.091 704 809.546 L 704 851 717.500 851 L 731 851 731 839.678 L 731 828.356 745.250 828.428 L 759.500 828.500 765.500 835.011 C 768.800 838.592, 774.474 844.766, 778.110 848.731 L 784.720 855.941 794.930 848.310 L 805.140 840.679 795.985 831.484 L 786.829 822.290 791.330 819.652 C 801.121 813.915, 806.179 806.236, 806.266 796.977 C 806.392 783.635, 797.551 775.081, 778.154 769.776 C 771.392 767.926, 767.413 767.660, 744 767.491 C 729.425 767.385, 714.462 767.477, 710.750 767.695 M 128 810 L 128 851 141.500 851 L 155 851 155 838.500 L 155 826 180.500 826 L 206 826 206 815.500 L 206 805 180.500 805 L 155 805 155 798 L 155 791 187 791 L 219 791 219 780 L 219 769 173.500 769 L 128 769 128 810 M 233.033 789.750 C 233.071 814.209, 233.904 821.925, 237.305 829.354 C 242.756 841.262, 255.887 850.451, 271.126 853.021 C 280.141 854.542, 299.561 853.759, 306.297 851.603 C 319.270 847.450, 328.902 839.628, 333.650 829.388 C 336.917 822.341, 337.933 812.902, 337.969 789.250 L 338 769 324.596 769 L 311.193 769 310.823 791.250 C 310.406 816.322, 309.486 820.240, 302.812 825.330 C 293.283 832.598, 276.360 832.223, 267.231 824.541 C 261.400 819.635, 260.613 815.906, 260.203 791.250 L 259.834 769 246.417 769 L 233 769 233.033 789.750 M 357 810 L 357 851 401.500 851 L 446 851 446 840 L 446 829 415 829 L 384 829 384 799 L 384 769 370.500 769 L 357 769 357 810 M 580 791.951 C 580 805.008, 580.481 817.186, 581.116 820.201 C 584.566 836.585, 596.756 848.137, 615.176 852.480 C 618.660 853.301, 626.256 853.977, 632.090 853.985 C 656.016 854.019, 672.604 845.502, 680.314 829.225 L 683.500 822.500 683.810 795.750 L 684.119 769 670.625 769 L 657.131 769 656.815 792.750 L 656.500 816.500 653.625 820.737 C 645.432 832.816, 622.166 834.022, 612.615 822.863 C 607.737 817.165, 607 812.792, 607 789.557 L 607 769 593.500 769 L 580 769 580 791.951 M 822 810 L 822 851 835.500 851 L 849 851 849 810 L 849 769 835.500 769 L 822 769 822 810 M 864.216 779.750 L 864.500 790.500 883.250 790.772 L 902 791.044 902 821.022 L 902 851 916 851 L 930 851 930 821 L 930 791 949 791 L 968 791 968 780 L 968 769 915.966 769 L 863.932 769 864.216 779.750 M 983 810 L 983 851 1028.500 851 L 1074 851 1074 840 L 1074 829 1042 829 L 1010 829 1010 824.500 L 1010 820 1035.500 820 L 1061 820 1061 810 L 1061 800 1035.500 800 L 1010 800 1010 795.500 L 1010 791 1042 791 L 1074 791 1074 780 L 1074 769 1028.500 769 L 983 769 983 810 M 731 797.772 L 731 805.763 739.250 806.438 C 750.141 807.329, 767.875 805.591, 773.562 803.076 C 780.556 799.982, 779.427 795.098, 771 791.994 C 768.836 791.196, 760.536 790.528, 749.250 790.243 L 731 789.781 731 797.772" stroke="none" fill="#ffffff" fill-rule="evenodd"/></svg>